<?xml version="1.0" encoding="UTF-8"?>
<svg width="1024px" height="1024px" viewBox="0 0 1024 1024" version="1.1" xmlns="http://www.w3.org/2000/svg" xmlns:xlink="http://www.w3.org/1999/xlink" style="background: #334D5C;">
    <!-- Generator: Sketch 48.2 (47327) - http://www.bohemiancoding.com/sketch -->
    <title>ioslogo@1.5x</title>
    <desc>Created with Sketch.</desc>
    <defs></defs>
    <g id="Page-1" stroke="none" stroke-width="1" fill="none" fill-rule="evenodd">
        <g id="ioslogo" fill-rule="nonzero">
            <g id="samaadhi@1.5x">
                <path d="M0,507 C0,227.036276 228.976757,0 511.333333,0 C793.68991,0 1022.66667,227.036276 1022.66667,507 C1022.66667,786.963724 793.68991,1014 511.333333,1014 C228.976757,1014 0,786.963724 0,507 Z" id="Shape" fill="#334D5C"></path>
                <g id="Group-2" transform="translate(4.000000, 8.000000)">
                    <g id="001-lotus-position">
                        <g id="Layer_1">
                            <g id="Group" transform="translate(311.250050, 0.000000)" fill="#F2A5A5">
                                <path d="M199.964671,614.490842 C200.222247,614.490842 200.737398,614.490842 200.994974,614.225088 C200.737398,613.959333 200.737398,613.693578 200.479822,613.693578 C200.479822,613.959333 200.222247,614.225088 199.964671,614.490842 Z" id="Shape"></path>
                                <path d="M395.933403,708.517216 L395.129767,708.517216 C395.397646,708.782971 395.665524,708.782971 395.933403,709.048725 C395.933403,709.048725 395.933403,708.782971 395.933403,708.517216 Z" id="Shape"></path>
                                <path d="M197.940136,0.312949301 L197.940136,0 C17.554141,278.837827 17.554141,730.736617 197.940136,1009.2615 L197.940136,1009.57444 C378.123678,731.049567 378.123678,279.150775 197.940136,0.312949301 Z" id="Shape"></path>
                                <path d="M0.143147007,708.830167 L0.143147007,709.62743 C0.411025809,709.361676 0.678904611,709.361676 0.946783413,709.095921 C0.678904611,708.830167 0.411025809,708.830167 0.143147007,708.830167 Z" id="Shape"></path>
                                <path d="M301.185204,611.502933 C300.917325,611.768688 300.649446,611.768688 300.381567,612.034442 C300.649446,612.034442 300.917325,612.300197 301.185204,612.300197 L301.185204,611.502933 Z" id="Shape"></path>
                            </g>
                            <path d="M502.271481,1009.59327 C615.21483,657.581569 472.186136,260.216822 182.92293,122.655936 C69.73298,474.96799 212.761674,872.032385 502.271481,1009.59327 Z" id="Shape" fill="#E28D8D"></path>
                            <g id="Group" transform="translate(249.847358, 610.917804)" fill="#F2A5A5">
                                <path d="M1.25455202e-14,246.203137 C1.25455202e-14,246.468892 0.267878802,246.734646 0.267878802,246.734646 C0.535757605,246.468892 0.535757605,246.203137 0.803636407,245.937383 C0.535757605,246.203137 0.267878802,246.203137 1.25455202e-14,246.203137 Z" id="Shape"></path>
                                <path d="M155.108396,0.585130536 C155.376275,0.850885078 155.644154,0.850885078 155.912033,1.11663962 C155.644154,1.11663962 155.376275,1.38239416 155.108396,1.38239416 C154.840517,0.850885078 155.108396,0.850885078 155.108396,0.585130536 Z" id="Shape"></path>
                            </g>
                            <path d="M834.361807,122.950057 C947.342725,474.842595 804.266454,872.072825 514.907026,1009.58714 L514.907026,1009.88739 C401.926108,657.694605 545.00238,260.464377 834.361807,122.950057 Z" id="Shape" fill="#E28D8D"></path>
                            <path d="M767.312117,857.120939 C767.312117,857.386694 767.044239,857.652448 767.044239,857.652448 C766.77636,857.386694 766.77636,857.120939 766.508481,856.855185 C766.77636,857.120939 767.044239,857.120939 767.312117,857.120939 Z" id="Shape" fill="#F2A5A5"></path>
                            <g id="Group" transform="translate(0.000000, 541.528480)" fill="#CE8282">
                                <path d="M511.527418,38.9924734 C511.269842,39.2582279 511.269842,39.5239825 511.012267,39.789737 L512.04257,39.789737 C511.784994,39.2582279 511.784994,38.9924734 511.527418,38.9924734 Z" id="Shape"></path>
                                <path d="M509.169374,467.84077 C509.169374,209.502381 281.214675,0 0.122476426,0 C-0.100625819,258.338392 227.854075,467.84077 509.169374,467.84077 Z" id="Shape"></path>
                                <path d="M231.829004,471.487221 C232.096883,471.799577 232.096883,471.799577 232.364762,472.111932 L232.364762,470.862508 C232.364762,471.174865 232.096883,471.487221 231.829004,471.487221 Z" id="Shape"></path>
                                <path d="M507.47835,38.9924734 C507.735926,39.2582279 507.735926,39.5239825 507.993501,39.789737 L506.963198,39.789737 C507.220774,39.2582279 507.47835,38.9924734 507.47835,38.9924734 Z" id="Shape"></path>
                                <path d="M509.817933,467.84086 C509.594929,209.615727 737.449766,0.20519332 1018.64199,0.20519332 C1018.86499,258.430328 791.010159,467.84086 509.817933,467.84086 Z" id="Shape"></path>
                                <path d="M787.28958,471.487221 L786.753822,472.111932 L786.753822,470.862508 C786.753822,471.174865 787.021701,471.487221 787.28958,471.487221 Z" id="Shape"></path>
                            </g>
                        </g>
                    </g>
                    <g id="meditation" transform="translate(204.000000, 357.035547)" fill="#EFDFDF">
                        <g id="Capa_1">
                            <g id="Group">
                                <path d="M306,191.504284 C358.283758,191.504284 402.45697,145.876276 402.45697,91.8667793 C402.45697,40.4207914 360.088848,0.122183769 306,0.122183769 C251.911152,0.122183769 209.54303,40.4228357 209.54303,91.8667793 C209.54303,145.876276 253.716242,191.504284 306,191.504284 Z" id="Shape"></path>
                                <path d="M61.3978182,443.392558 L132.107515,449.400655 L184.739515,336.579681 C187.799515,330.021677 195.046667,326.442168 202.161939,328.010119 C209.277212,329.563761 214.346303,335.819214 214.346303,343.047737 L214.346303,398.504574 L385.716606,231.134417 C357.531636,223.098409 327.415879,218.872912 305.997939,218.872912 C263.421697,218.872912 186.458061,235.556164 158.666667,265.721347 C128.888848,298.045274 74.1529697,387.148679 40.6433939,443.533612 C47.4681212,442.634135 54.4370909,442.556453 61.3978182,443.392558 Z" id="Shape"></path>
                                <path d="M594.589939,486.381419 C583.522424,476.689556 568.772606,472.161508 554.136121,473.991125 L385.110788,494.950981 L402.930909,575.738313 L560.521939,575.738313 C588.906788,575.738313 612,552.826184 612,524.666425 C612,510.025395 605.655394,496.071238 594.589939,486.381419 Z" id="Shape"></path>
                                <path d="M51.4842424,473.596582 C39.0093333,473.596582 26.8661818,478.100099 17.4100606,486.383463 C6.34460606,496.071238 0,510.025395 0,524.666425 C0,552.828228 23.0952727,575.738313 51.4780606,575.738313 L371.152242,575.738313 L354.265576,499.184655 C354.267636,499.186699 53.6046061,473.596582 51.4842424,473.596582 Z" id="Shape"></path>
                                <path d="M214.348364,456.387954 L334.013939,466.556131 L363.802061,466.556131 L397.651636,462.359254 L397.651636,343.047737 C397.651636,335.819214 402.720727,329.563761 409.836,328.010119 C416.951273,326.446256 424.198424,330.023721 427.258424,336.579681 L481.106182,452.009137 L550.282788,443.431399 C557.348606,442.558498 564.422667,442.619826 571.350424,443.531568 C537.836727,387.14459 483.098788,298.037097 453.327152,265.721347 C445.150667,256.845146 432.698424,249.148486 418.136121,242.688606 L214.344242,441.722393 L214.344242,456.387954 L214.348364,456.387954 Z" id="Shape"></path>
                            </g>
                        </g>
                    </g>
                </g>
            </g>
        </g>
    </g>
</svg>