<?xml version="1.0" encoding="UTF-8"?>
<svg width="1536px" height="1536px" viewBox="0 0 1536 1536" version="1.1" xmlns="http://www.w3.org/2000/svg" xmlns:xlink="http://www.w3.org/1999/xlink" style="background: #334D5C;">
    <!-- Generator: Sketch 48.2 (47327) - http://www.bohemiancoding.com/sketch -->
    <title>logo@1.5x</title>
    <desc>Created with Sketch.</desc>
    <defs></defs>
    <g id="Page-1" stroke="none" stroke-width="1" fill="none" fill-rule="evenodd">
        <g id="logo" fill-rule="nonzero">
            <g id="samaadhi@1.5x">
                <path d="M0,760.5 C0,340.554414 343.465135,0 767,0 C1190.53486,0 1534,340.554414 1534,760.5 C1534,1180.44559 1190.53486,1521 767,1521 C343.465135,1521 0,1180.44559 0,760.5 Z" id="Shape" fill="#334D5C"></path>
                <g id="Group-2" transform="translate(6.000000, 12.000000)">
                    <g id="001-lotus-position">
                        <g id="Layer_1">
                            <g id="Group" transform="translate(466.875075, 0.000000)" fill="#F2A5A5">
                                <path d="M299.947006,921.736263 C300.33337,921.736263 301.106097,921.736263 301.492461,921.337631 C301.106097,920.939 301.106097,920.540368 300.719734,920.540368 C300.719734,920.939 300.33337,921.337631 299.947006,921.736263 Z" id="Shape"></path>
                                <path d="M593.900105,1062.77582 L592.69465,1062.77582 C593.096469,1063.17446 593.498287,1063.17446 593.900105,1063.57309 C593.900105,1063.57309 593.900105,1063.17446 593.900105,1062.77582 Z" id="Shape"></path>
                                <path d="M296.910205,0.469423952 L296.910205,0 C26.3312115,418.25674 26.3312115,1096.10493 296.910205,1513.89224 L296.910205,1514.36167 C567.185517,1096.57435 567.185517,418.726163 296.910205,0.469423952 Z" id="Shape"></path>
                                <path d="M0.21472051,1063.24525 L0.21472051,1064.44115 C0.616538713,1064.04251 1.01835692,1064.04251 1.42017512,1063.64388 C1.01835692,1063.24525 0.616538713,1063.24525 0.21472051,1063.24525 Z" id="Shape"></path>
                                <path d="M451.777805,917.2544 C451.375987,917.653032 450.974169,917.653032 450.572351,918.051663 C450.974169,918.051663 451.375987,918.450295 451.777805,918.450295 L451.777805,917.2544 Z" id="Shape"></path>
                            </g>
                            <path d="M753.407221,1514.38991 C922.822245,986.372353 708.279203,390.325233 274.384395,183.983903 C104.59947,712.451985 319.142511,1308.04858 753.407221,1514.38991 Z" id="Shape" fill="#E28D8D"></path>
                            <g id="Group" transform="translate(374.771037, 916.376706)" fill="#F2A5A5">
                                <path d="M1.25455202e-14,369.304706 C1.25455202e-14,369.703338 0.401818203,370.10197 0.401818203,370.10197 C0.803636407,369.703338 0.803636407,369.304706 1.20545461,368.906074 C0.803636407,369.304706 0.401818203,369.304706 1.25455202e-14,369.304706 Z" id="Shape"></path>
                                <path d="M232.662594,0.877695804 C233.064413,1.27632762 233.466231,1.27632762 233.868049,1.67495943 C233.466231,1.67495943 233.064413,2.07359124 232.662594,2.07359124 C232.260776,1.27632762 232.662594,1.27632762 232.662594,0.877695804 Z" id="Shape"></path>
                            </g>
                            <path d="M1251.54271,184.425085 C1421.01409,712.263892 1206.39968,1308.10924 772.360539,1514.38071 L772.360539,1514.83109 C602.889162,986.541907 817.50357,390.696565 1251.54271,184.425085 Z" id="Shape" fill="#E28D8D"></path>
                            <path d="M1150.96818,1285.68141 C1150.96818,1286.08004 1150.56636,1286.47867 1150.56636,1286.47867 C1150.16454,1286.08004 1150.16454,1285.68141 1149.76272,1285.28278 C1150.16454,1285.68141 1150.56636,1285.68141 1150.96818,1285.68141 Z" id="Shape" fill="#F2A5A5"></path>
                            <g id="Group" transform="translate(0.000000, 812.292721)" fill="#CE8282">
                                <path d="M767.291127,58.4887101 C766.904763,58.8873419 766.904763,59.2859737 766.5184,59.6846055 L768.063854,59.6846055 C767.677491,58.8873419 767.677491,58.4887101 767.291127,58.4887101 Z" id="Shape"></path>
                                <path d="M763.754061,701.761156 C763.754061,314.253571 421.822012,0 0.18371464,0 C-0.150938729,387.507587 341.781112,701.761156 763.754061,701.761156 Z" id="Shape"></path>
                                <path d="M347.743506,707.230831 C348.145324,707.699365 348.145324,707.699365 348.547143,708.167898 L348.547143,706.293762 C348.547143,706.762298 348.145324,707.230831 347.743506,707.230831 Z" id="Shape"></path>
                                <path d="M761.217525,58.4887101 C761.603888,58.8873419 761.603888,59.2859737 761.990252,59.6846055 L760.444797,59.6846055 C760.831161,58.8873419 761.217525,58.4887101 761.217525,58.4887101 Z" id="Shape"></path>
                                <path d="M764.7269,701.76129 C764.392394,314.423591 1106.17465,0.307789981 1527.96299,0.307789981 C1528.29749,387.645492 1186.51524,701.76129 764.7269,701.76129 Z" id="Shape"></path>
                                <path d="M1180.93437,707.230831 L1180.13073,708.167898 L1180.13073,706.293762 C1180.13073,706.762298 1180.53255,707.230831 1180.93437,707.230831 Z" id="Shape"></path>
                            </g>
                        </g>
                    </g>
                    <g id="meditation" transform="translate(306.000000, 535.553320)" fill="#EFDFDF">
                        <g id="Capa_1">
                            <g id="Group">
                                <path d="M459,287.256427 C537.425636,287.256427 603.685455,218.814414 603.685455,137.800169 C603.685455,60.6311871 540.133273,0.183275654 459,0.183275654 C377.866727,0.183275654 314.314545,60.6342535 314.314545,137.800169 C314.314545,218.814414 380.574364,287.256427 459,287.256427 Z" id="Shape"></path>
                                <path d="M92.0967273,665.088837 L198.161273,674.100982 L277.109273,504.869521 C281.699273,495.032515 292.57,489.663252 303.242909,492.015179 C313.915818,494.345642 321.519455,503.728821 321.519455,514.571606 L321.519455,597.756861 L578.574909,346.701626 C536.297455,334.647614 491.123818,328.309368 458.996909,328.309368 C395.132545,328.309368 279.687091,353.334245 238,398.58202 C193.333273,447.067911 111.229455,580.723018 60.9650909,665.300419 C71.2021818,663.951203 81.6556364,663.83468 92.0967273,665.088837 Z" id="Shape"></path>
                                <path d="M891.884909,729.572129 C875.283636,715.034334 853.158909,708.242262 831.204182,710.986688 L577.666182,742.426471 L604.396364,863.607469 L840.782909,863.607469 C883.360182,863.607469 918,829.239276 918,786.999638 C918,765.038093 908.483091,744.106857 891.884909,729.572129 Z" id="Shape"></path>
                                <path d="M77.2263636,710.394873 C58.514,710.394873 40.2992727,717.150149 26.1150909,729.575195 C9.51690909,744.106857 0,765.038093 0,786.999638 C0,829.242342 34.6429091,863.607469 77.2170909,863.607469 L556.728364,863.607469 L531.398364,748.776982 C531.401455,748.780048 80.4069091,710.394873 77.2263636,710.394873 Z" id="Shape"></path>
                                <path d="M321.522545,684.581932 L501.020909,699.834197 L545.703091,699.834197 L596.477455,693.538881 L596.477455,514.571606 C596.477455,503.728821 604.081091,494.345642 614.754,492.015179 C625.426909,489.669384 636.297636,495.035581 640.887636,504.869521 L721.659273,678.013706 L825.424182,665.147099 C836.022909,663.837746 846.634,663.929738 857.025636,665.297352 C806.755091,580.716885 724.648182,447.055646 679.990727,398.58202 C667.726,385.267718 649.047636,373.722728 627.204182,364.032909 L321.516364,662.58359 L321.516364,684.581932 L321.522545,684.581932 Z" id="Shape"></path>
                            </g>
                        </g>
                    </g>
                </g>
            </g>
        </g>
    </g>
</svg>