<?xml version="1.0" encoding="UTF-8"?>
<svg width="497px" height="500px" viewBox="0 0 497 500" version="1.1" xmlns="http://www.w3.org/2000/svg" xmlns:xlink="http://www.w3.org/1999/xlink">
    <!-- Generator: Sketch 3.6.1 (26313) - http://www.bohemiancoding.com/sketch -->
    <title>samaadhi@1.5x</title>
    <desc>Created with Sketch.</desc>
    <defs></defs>
    <g id="Page-1" stroke="none" stroke-width="1" fill="none" fill-rule="evenodd">
        <g id="samaadhi">
            <g>
                <path d="M0,248.1 C0,111.1 111.1,0 248.1,0 C385.1,0 496.2,111.1 496.2,248.1 C496.2,385.1 385.1,496.2 248.1,496.2 C111.1,496.2 0,385.1 0,248.1 L0,248.1 Z" id="Shape" fill="#334D5C"></path>
                <g id="Group-2" transform="translate(2.000000, 4.000000)">
                    <g id="001-lotus-position">
                        <g id="Layer_1">
                            <g id="Group" transform="translate(150.724289, 0.000000)" fill="#F2A5A5">
                                <path id="Shape" d="M97.3652079,300.592469 L97.3652079,300.592469 C97.4902079,300.592469 97.7402079,300.592469 97.8652079,300.462469 C97.7402079,300.332469 97.7402079,300.202469 97.6152079,300.202469 C97.6152079,300.332469 97.4902079,300.462469 97.3652079,300.592469 L97.3652079,300.592469 Z"></path>
                                <path id="Shape" d="M192.467681,346.587654 L192.077681,346.587654 L192.077681,346.587654 C192.207681,346.717654 192.337681,346.717654 192.467681,346.847654 C192.467681,346.847654 192.467681,346.717654 192.467681,346.587654 L192.467681,346.587654 Z"></path>
                                <path d="M96.3827133,0.15308642 L96.3827133,0 C8.84245077,136.4 8.84245077,357.45679 96.3827133,493.703704 L96.3827133,493.85679 C183.824726,357.609877 183.824726,136.553086 96.3827133,0.15308642 L96.3827133,0.15308642 Z" id="Shape"></path>
                                <path id="Shape" d="M0.392997812,346.740741 L0.392997812,347.130741 C0.522997819,347.000741 0.652997826,347.000741 0.782997833,346.870741 L0.782997833,346.870741 C0.652997826,346.740741 0.522997819,346.740741 0.392997812,346.740741 L0.392997812,346.740741 Z"></path>
                                <path id="Shape" d="M146.486937,299.130864 C146.356937,299.260864 146.226937,299.260864 146.096937,299.390864 L146.096937,299.390864 C146.226937,299.390864 146.356937,299.520864 146.486937,299.520864 L146.486937,299.130864 L146.486937,299.130864 Z"></path>
                            </g>
                            <path d="M243.749395,493.866 C298.560138,321.671299 229.149154,127.291103 88.7714219,60 C33.841005,232.341625 103.251989,426.574897 243.749395,493.866 Z" id="Shape" fill="#E28D8D"></path>
                            <g id="Group" transform="translate(121.249453, 298.518519)" fill="#F2A5A5">
                                <path id="Shape" d="M1.25455202e-14,120.762099 C1.25455202e-14,120.892099 0.130000007,121.022099 0.130000007,121.022099 C0.260000014,120.892099 0.260000014,120.762099 0.390000021,120.632099 L0.390000021,120.632099 C0.260000014,120.762099 0.130000007,120.762099 1.25455202e-14,120.762099 L1.25455202e-14,120.762099 Z"></path>
                                <path id="Shape" d="M75.2731923,0.612345679 C75.4031923,0.742345686 75.5331923,0.742345686 75.6631923,0.872345693 L75.6631923,0.872345693 C75.5331923,0.872345693 75.4031923,1.0023457 75.2731923,1.0023457 C75.1431923,0.742345686 75.2731923,0.742345686 75.2731923,0.612345679 L75.2731923,0.612345679 Z"></path>
                            </g>
                            <path d="M404.910877,60.1438761 L404.910877,60.1438761 C459.739852,232.280285 390.305779,426.594679 249.881351,493.863002 L249.881351,494.009877 C195.052376,321.726593 264.486449,127.4122 404.910877,60.1438761 L404.910877,60.1438761 Z" id="Shape" fill="#E28D8D"></path>
                            <path id="Shape" fill="#F2A5A5" d="M372.372057,419.280617 C372.372057,419.410617 372.242057,419.540617 372.242057,419.540617 C372.112057,419.410617 372.112057,419.280617 371.982057,419.150617 L371.982057,419.150617 C372.112057,419.280617 372.242057,419.280617 372.372057,419.280617 L372.372057,419.280617 Z"></path>
                            <g id="Group" transform="translate(0.000000, 264.901235)" fill="#CE8282">
                                <path id="Shape" d="M248.241247,19.0740741 C248.116247,19.2040741 248.116247,19.3340741 247.991247,19.4640741 L247.991247,19.4640741 L248.491247,19.4640741 C248.366247,19.2040741 248.366247,19.0740741 248.241247,19.0740741 L248.241247,19.0740741 Z"></path>
                                <path d="M247.096902,228.85518 C247.096902,102.482956 136.471863,0 0.0595960185,0 C-0.0487536771,126.372225 110.576286,228.85518 247.096902,228.85518 Z" id="Shape"></path>
                                <path id="Shape" d="M112.505252,230.638926 C112.635252,230.791722 112.635252,230.791722 112.765252,230.944518 L112.765252,230.333333 L112.765252,230.333333 C112.765252,230.48613 112.635252,230.638926 112.505252,230.638926 L112.505252,230.638926 Z"></path>
                                <path id="Shape" d="M246.276258,19.0740741 C246.401258,19.2040741 246.401258,19.3340741 246.526258,19.4640741 L246.526258,19.4640741 L246.026258,19.4640741 C246.151258,19.2040741 246.276258,19.0740741 246.276258,19.0740741 L246.276258,19.0740741 Z"></path>
                                <path d="M247.411803,228.855224 C247.303501,102.538402 357.880042,0.100375079 494.340807,0.100375079 C494.449109,126.417198 383.872569,228.855224 247.411803,228.855224 Z" id="Shape"></path>
                                <path id="Shape" d="M382.067002,230.638926 L381.807002,230.944518 L381.807002,230.333333 L381.807002,230.333333 C381.807002,230.48613 381.937002,230.638926 382.067002,230.638926 L382.067002,230.638926 Z"></path>
                            </g>
                        </g>
                    </g>
                    <g id="meditation" transform="translate(99.000000, 174.000000)" fill="#EFDFDF">
                        <g id="Capa_1">
                            <g id="Group">
                                <path d="M148.5,94.331 C173.873,94.331 195.31,72.011 195.31,45.591 C195.31,20.425 174.749,0.712 148.5,0.712 C122.251,0.712 101.69,20.426 101.69,45.591 C101.69,72.011 123.127,94.331 148.5,94.331 L148.5,94.331 Z" id="Shape"></path>
                                <path d="M29.796,217.548 L64.111,220.487 L89.653,165.298 C91.138,162.09 94.655,160.339 98.108,161.106 C101.561,161.866 104.021,164.926 104.021,168.462 L104.021,195.59 L187.186,113.717 C173.508,109.786 158.893,107.719 148.499,107.719 C127.837,107.719 90.487,115.88 77,130.636 C62.549,146.448 35.986,190.035 19.724,217.617 C23.036,217.177 26.418,217.139 29.796,217.548 L29.796,217.548 Z" id="Shape"></path>
                                <path d="M288.551,238.577 C283.18,233.836 276.022,231.621 268.919,232.516 L186.892,242.769 L195.54,282.288 L272.018,282.288 C285.793,282.288 297,271.08 297,257.305 C297,250.143 293.921,243.317 288.551,238.577 L288.551,238.577 Z" id="Shape"></path>
                                <path d="M24.985,232.323 C18.931,232.323 13.038,234.526 8.449,238.578 C3.079,243.317 0,250.143 0,257.305 C0,271.081 11.208,282.288 24.982,282.288 L180.118,282.288 L171.923,244.84 C171.924,244.841 26.014,232.323 24.985,232.323 L24.985,232.323 Z" id="Shape"></path>
                                <path d="M104.022,223.905 L162.095,228.879 L176.551,228.879 L192.978,226.826 L192.978,168.462 C192.978,164.926 195.438,161.866 198.891,161.106 C202.344,160.341 205.861,162.091 207.346,165.298 L233.478,221.763 L267.049,217.567 C270.478,217.14 273.911,217.17 277.273,217.616 C261.009,190.033 234.445,146.444 219.997,130.636 C216.029,126.294 209.986,122.529 202.919,119.369 L104.02,216.731 L104.02,223.905 L104.022,223.905 Z" id="Shape"></path>
                            </g>
                        </g>
                    </g>
                </g>
            </g>
        </g>
    </g>
</svg>